<?xml version="1.0" encoding="UTF-8" standalone="no"?>
<!DOCTYPE svg PUBLIC "-//W3C//DTD SVG 1.1//EN" "http://www.w3.org/Graphics/SVG/1.1/DTD/svg11.dtd">
<!-- Generated by graphviz version 2.40.1 (20161225.0304)
 -->
<!-- Title: %0 Pages: 1 -->
<svg xmlns="http://www.w3.org/2000/svg" xmlns:xlink="http://www.w3.org/1999/xlink" width="284pt" height="210pt" viewBox="0.00 0.00 284.00 210.00">
  <g id="graph0" class="graph" transform="scale(1 1) rotate(0) translate(4 206)">
    <title>%0</title>
    <g id="a_graph0">
      <a xlink:title="Data Model">
        <polygon fill="#ffffff" stroke="transparent" points="-4,4 -4,-206 280,-206 280,4 -4,4"/>
      </a>
    </g>
    <!-- estban -->
    <g id="estban" class="node">
      <title>estban</title>
      <polygon fill="#efebdd" stroke="transparent" points="1,-181 1,-201 79,-201 79,-181 1,-181"/>
      <text text-anchor="start" x="22.1178" y="-186.4" font-family="Times,serif" font-size="14.00" fill="#000000">estban</text>
      <polygon fill="#ffffff" stroke="transparent" points="1,-161 1,-181 79,-181 79,-161 1,-161"/>
      <text text-anchor="start" x="3" y="-166.4" font-family="Times,serif" font-size="14.00" fill="#444444">ano</text>
      <polygon fill="#ffffff" stroke="transparent" points="1,-141 1,-161 79,-161 79,-141 1,-141"/>
      <text text-anchor="start" x="3" y="-146.4" font-family="Times,serif" font-size="14.00" fill="#444444">mes</text>
      <polygon fill="#ffffff" stroke="transparent" points="1,-121 1,-141 79,-141 79,-121 1,-121"/>
      <text text-anchor="start" x="2.6662" y="-126.4" font-family="Times,serif" font-size="14.00" fill="#444444">id_municipio</text>
      <polygon fill="#ffffff" stroke="transparent" points="1,-101 1,-121 79,-121 79,-101 1,-101"/>
      <text text-anchor="start" x="3" y="-106.4" font-family="Times,serif" font-size="14.00" fill="#444444">cnpj_agencia</text>
      <polygon fill="#ffffff" stroke="transparent" points="1,-81 1,-101 79,-101 79,-81 1,-81"/>
      <text text-anchor="start" x="3" y="-86.4" font-family="Times,serif" font-size="14.00" fill="#444444">verbete</text>
      <polygon fill="#ffffff" stroke="transparent" points="1,-61 1,-81 79,-81 79,-61 1,-61"/>
      <text text-anchor="start" x="3" y="-66.4" font-family="Times,serif" font-size="14.00" fill="#444444">valor</text>
      <polygon fill="#ffffff" stroke="transparent" points="1,-41 1,-61 79,-61 79,-41 1,-41"/>
      <text text-anchor="start" x="3" y="-46.4" font-family="Times,serif" font-size="14.00" fill="#444444">ref</text>
      <polygon fill="#ffffff" stroke="transparent" points="1,-21 1,-41 79,-41 79,-21 1,-21"/>
      <text text-anchor="start" x="3" y="-27.4" font-family="Times,serif" text-decoration="underline" font-size="14.00" fill="#444444">pk</text>
      <polygon fill="none" stroke="#555555" points="0,-20 0,-202 80,-202 80,-20 0,-20"/>
    </g>
    <!-- municipios -->
    <g id="municipios" class="node">
      <title>municipios</title>
      <polygon fill="#efebdd" stroke="transparent" points="117,-141 117,-161 275,-161 275,-141 117,-141"/>
      <text text-anchor="start" x="164.8892" y="-146.4" font-family="Times,serif" font-size="14.00" fill="#000000">municipios</text>
      <polygon fill="#ffffff" stroke="transparent" points="117,-121 117,-141 275,-141 275,-121 117,-121"/>
      <text text-anchor="start" x="119" y="-127.4" font-family="Times,serif" text-decoration="underline" font-size="14.00" fill="#444444">id_municipio</text>
      <polygon fill="#ffffff" stroke="transparent" points="117,-101 117,-121 275,-121 275,-101 117,-101"/>
      <text text-anchor="start" x="119" y="-106.4" font-family="Times,serif" font-size="14.00" fill="#444444">nome</text>
      <polygon fill="#ffffff" stroke="transparent" points="117,-81 117,-101 275,-101 275,-81 117,-81"/>
      <text text-anchor="start" x="119" y="-86.4" font-family="Times,serif" font-size="14.00" fill="#444444">nome_mesorregiao</text>
      <polygon fill="#ffffff" stroke="transparent" points="117,-61 117,-81 275,-81 275,-61 117,-61"/>
      <text text-anchor="start" x="119" y="-66.4" font-family="Times,serif" font-size="14.00" fill="#444444">nome_microrregiao</text>
      <polygon fill="#ffffff" stroke="transparent" points="117,-41 117,-61 275,-61 275,-41 117,-41"/>
      <text text-anchor="start" x="119" y="-46.4" font-family="Times,serif" font-size="14.00" fill="#444444">nome_regiao</text>
      <polygon fill="#ffffff" stroke="transparent" points="117,-21 117,-41 275,-41 275,-21 117,-21"/>
      <text text-anchor="start" x="119" y="-26.4" font-family="Times,serif" font-size="14.00" fill="#444444">nome_regiao_imediata</text>
      <polygon fill="#ffffff" stroke="transparent" points="117,-1 117,-21 275,-21 275,-1 117,-1"/>
      <text text-anchor="start" x="118.6409" y="-6.4" font-family="Times,serif" font-size="14.00" fill="#444444">nome_regiao_intermediaria</text>
      <polygon fill="none" stroke="#555555" points="116,0 116,-162 276,-162 276,0 116,0"/>
    </g>
    <!-- estban&#45;&gt;municipios -->
    <g id="estban_1" class="edge">
      <title>estban:id_municipio-&gt;municipios:id_municipio</title>
      <path fill="none" stroke="#555555" d="M79,-131C91.9306,-131 97.4361,-131 106.8862,-131"/>
      <polygon fill="#555555" stroke="#555555" points="107,-134.5001 117,-131 107,-127.5001 107,-134.5001"/>
    </g>
  </g>
</svg>
